<svg width="145" height="34" viewBox="0 0 145 34" fill="none" xmlns="http://www.w3.org/2000/svg">
<g clip-path="url(#clip0_2745_3848)">
<path d="M32.6774 24.8412L26.7232 29.5171L23.7433 31.8551L22.259 33.0076L21.514 33.5921L21.4181 33.6637L21.3729 33.7023H21.3334L21.2093 33.785C20.9541 33.9263 20.6595 33.9842 20.3683 33.9505C20.1033 33.9171 19.8457 33.8407 19.6064 33.7244C18.9752 33.4048 18.3794 33.0223 17.8286 32.583C17.3038 32.186 16.8071 31.7779 16.3218 31.3643C15.3454 30.5317 14.4029 29.677 13.4999 28.8113C11.6487 27.0799 9.85398 25.3043 8.07619 23.5067C7.19012 22.6079 6.31533 21.7036 5.44055 20.7883C5.01162 20.3196 4.5714 19.8895 4.13683 19.3546C3.70226 18.8197 3.33541 18.3345 2.96857 17.8052C2.21791 16.7431 1.57345 15.613 1.04405 14.4305C0.774162 13.8317 0.549686 13.2143 0.372434 12.5833L0.146678 11.6018C0.0880653 11.27 0.0522399 10.9347 0.0394446 10.5982C-0.0469461 9.25599 0.170814 7.9117 0.677194 6.66114C1.19591 5.42204 1.96353 4.29706 2.93471 3.35267C3.89613 2.42216 5.05711 1.71191 6.33375 1.27326C7.6104 0.834597 8.97084 0.678481 10.3168 0.81618C10.6543 0.84081 10.9887 0.896202 11.3157 0.981614C11.6475 1.0408 11.974 1.12562 12.2921 1.23526C12.9286 1.44069 13.543 1.70664 14.1263 2.02929C15.2701 2.6773 16.3151 3.47918 17.2304 4.41139C19.059 6.23105 20.4982 8.30435 22.1969 10.0964C23.8359 11.9269 26.0344 13.1932 28.4672 13.7082C30.8923 14.2745 33.4412 14.0378 35.7138 13.0354C36.8416 12.5319 37.8475 11.8009 38.6655 10.8905C39.4903 9.99101 40.0038 8.86028 40.1329 7.65919C40.2217 6.4444 39.9721 5.22879 39.4106 4.14142C38.8492 3.05406 37.9969 2.13554 36.9441 1.48338C35.8955 0.803457 34.6958 0.378095 33.445 0.242708C32.1883 0.113375 30.9178 0.241084 29.7144 0.61768C27.2789 1.38317 25.1738 2.91984 23.732 4.98485C25.144 2.87476 27.238 1.28696 29.6806 0.474308C30.8997 0.0712697 32.1906 -0.082638 33.4732 0.0221472C34.7645 0.142225 36.0082 0.559877 37.1021 1.24078C38.2212 1.90948 39.1338 2.86198 39.743 3.99701C40.3522 5.13204 40.6351 6.40715 40.5618 7.68676C40.4417 8.98063 39.9132 10.2061 39.0493 11.1937C38.1993 12.1708 37.1497 12.9634 35.9677 13.5207C31.2383 15.798 25.0922 14.5132 21.593 10.6533C19.804 8.82818 18.3253 6.79347 16.5419 5.0841C15.677 4.23666 14.6972 3.50936 13.6297 2.92257C13.0895 2.64116 12.5224 2.41215 11.9365 2.23883C11.6534 2.14625 11.3626 2.07797 11.0674 2.03479C10.7795 1.96075 10.4844 1.9164 10.187 1.90246C9.00459 1.78572 7.81078 1.94641 6.70476 2.37116C5.59203 2.78117 4.58734 3.4293 3.76434 4.26802C2.94551 5.10431 2.30309 6.08984 1.87367 7.16845C1.46503 8.24599 1.30134 9.39752 1.39396 10.5431C1.413 10.8279 1.4488 11.1114 1.50119 11.3922L1.71001 12.2249C1.87996 12.7911 2.09314 13.3441 2.34776 13.8791C2.86151 14.9649 3.47944 16.0007 4.19327 16.9725C4.54882 17.4633 4.92131 17.943 5.32202 18.4062C5.72273 18.8694 6.14602 19.2884 6.58059 19.7351C7.45538 20.6229 8.3471 21.5051 9.24446 22.3819C11.0335 24.1354 12.8508 25.8613 14.7076 27.5376C15.6389 28.3702 16.5757 29.1918 17.5295 29.9803C18.0092 30.3718 18.489 30.7578 18.98 31.1107C19.422 31.4518 19.8963 31.7509 20.3966 32.004C20.4869 32.0426 20.5941 32.0646 20.5377 32.0536C20.4045 32.0431 20.2715 32.0761 20.1595 32.1474L20.0862 32.2025L20.1313 32.1694L20.2216 32.0922L20.9553 31.4967L22.417 30.3001L25.3462 27.9125L31.2044 23.1373C31.3182 23.0443 31.4496 22.974 31.5911 22.9306C31.7327 22.8871 31.8816 22.8714 32.0294 22.8842C32.1772 22.897 32.3209 22.9381 32.4525 23.0052C32.584 23.0723 32.7007 23.164 32.7959 23.2752C32.8912 23.3863 32.9631 23.5147 33.0075 23.653C33.052 23.7913 33.0681 23.9368 33.055 24.0812C33.0419 24.2256 32.9998 24.366 32.9312 24.4945C32.8625 24.623 32.7686 24.7371 32.6549 24.8301L32.6774 24.8412Z" fill="url(#paint0_linear_2745_3848)"/>
<path d="M57.8317 17.6399V24.3781H56.3756V17.6399C56.3756 15.7209 55.2468 14.7063 53.6779 14.7063C51.9847 14.7063 50.6077 15.7209 50.6077 18.3953V24.3781H49.1516V17.6399C49.1516 15.7209 48.1357 14.7063 46.5667 14.7063C44.9977 14.7063 43.3836 15.7209 43.3836 18.3953V24.3781H41.9219V13.5815H43.3836V15.1585C43.7285 14.5846 44.2245 14.1116 44.8201 13.7886C45.4157 13.4657 46.089 13.3046 46.7699 13.3223C47.4653 13.2898 48.155 13.4588 48.7525 13.8081C49.3499 14.1573 49.8284 14.6712 50.1279 15.2853C50.4924 14.6773 51.0159 14.1751 51.6448 13.8301C52.2736 13.4851 52.985 13.3098 53.7061 13.3223C56.1329 13.3223 57.8317 14.9435 57.8317 17.6399Z" fill="#333333"/>
<path d="M69.9435 13.5815L65.214 25.3707C64.373 27.444 62.7363 28.8445 60.7497 28.6791V27.3392C62.1832 27.4881 63.1766 26.4955 63.7748 25.0949L64.0626 24.4222L59.113 13.5649H60.6594L64.8133 22.6136L68.3971 13.5649L69.9435 13.5815Z" fill="#333333"/>
<path d="M85.3791 13.5815V24.3781H83.9117V22.2607C83.4427 23.0013 82.7844 23.6098 82.0017 24.0265C81.219 24.4432 80.3387 24.6537 79.4475 24.6373C77.9117 24.6373 76.4389 24.0412 75.353 22.9802C74.267 21.9192 73.657 20.4802 73.657 18.9798C73.657 17.4793 74.267 16.0403 75.353 14.9793C76.4389 13.9184 77.9117 13.3223 79.4475 13.3223C80.3389 13.3048 81.2196 13.5148 82.0025 13.9316C82.7854 14.3484 83.4435 14.9575 83.9117 15.6989V13.5815H85.3791ZM83.923 18.9798C83.9197 18.1386 83.6613 17.3172 83.1805 16.6193C82.6997 15.9214 82.0181 15.3784 81.2217 15.0587C80.4252 14.7391 79.5497 14.6571 78.7057 14.8233C77.8616 14.9894 77.0869 15.3961 76.4792 15.9921C75.8716 16.5881 75.4583 17.3466 75.2915 18.1719C75.1248 18.9972 75.2121 19.8523 75.5423 20.6292C75.8726 21.4061 76.431 22.0699 77.1472 22.5369C77.8633 23.004 78.705 23.2532 79.566 23.2532C80.1404 23.2577 80.7098 23.15 81.241 22.9365C81.7721 22.7229 82.2543 22.4079 82.6591 22.0098C83.0639 21.6117 83.3833 21.1386 83.5984 20.6183C83.8135 20.098 83.92 19.5409 83.9117 18.9798H83.923Z" fill="#333333"/>
<path d="M99.4208 9.26367V24.3778H97.9591V22.2604C97.4914 23.001 96.8342 23.6096 96.0523 24.0264C95.2705 24.4431 94.391 24.6536 93.5005 24.637C91.9647 24.637 90.4919 24.041 89.406 22.98C88.32 21.919 87.71 20.48 87.71 18.9795C87.71 17.4791 88.32 16.0401 89.406 14.9791C90.4919 13.9181 91.9647 13.322 93.5005 13.322C94.3913 13.3038 95.2714 13.5136 96.0536 13.9305C96.8357 14.3474 97.4926 14.957 97.9591 15.6986V9.26367H99.4208ZM97.9591 18.9795C97.9546 18.1396 97.6956 17.3199 97.2148 16.6236C96.7339 15.9274 96.0528 15.3859 95.2573 15.0675C94.4618 14.7491 93.5876 14.6681 92.745 14.8346C91.9025 15.0011 91.1292 15.4078 90.5229 16.0032C89.9167 16.5986 89.5045 17.3562 89.3384 18.1803C89.1723 19.0043 89.2598 19.858 89.5898 20.6336C89.9198 21.4091 90.4775 22.0718 91.1926 22.538C91.9077 23.0042 92.748 23.253 93.6077 23.253C94.1827 23.2589 94.7532 23.1523 95.2853 22.9394C95.8175 22.7264 96.3006 22.4115 96.7062 22.0132C97.1118 21.6149 97.4316 21.1413 97.6468 20.6202C97.8619 20.0992 97.9681 19.5413 97.9591 18.9795Z" fill="#333333"/>
<path d="M113.096 19.0235C113.096 19.2386 113.096 19.4757 113.051 19.6907H103.349C103.659 21.8964 105.409 23.2529 107.751 23.2529C108.458 23.2906 109.163 23.1397 109.789 22.8163C110.416 22.4928 110.94 22.009 111.307 21.4167L112.588 22.15C112.07 22.9424 111.349 23.5888 110.497 24.025C109.644 24.4612 108.69 24.6722 107.728 24.6369C104.235 24.6369 101.848 22.2383 101.848 18.9794C101.821 18.2313 101.952 17.4859 102.232 16.7892C102.512 16.0925 102.936 15.4594 103.476 14.929C104.017 14.3987 104.663 13.9824 105.375 13.706C106.087 13.4296 106.85 13.2988 107.616 13.3219C110.996 13.3219 113.096 16.0625 113.096 19.0235ZM103.349 18.3067H111.594C111.527 17.3238 111.077 16.4033 110.337 15.7339C109.598 15.0645 108.624 14.6967 107.616 14.706C106.57 14.6666 105.548 15.0164 104.756 15.6847C103.964 16.353 103.461 17.2901 103.349 18.3067Z" fill="#333333"/>
<path d="M122.577 21.5269C122.577 23.3631 120.941 24.6368 118.576 24.6368C116.363 24.6368 114.862 23.534 114.309 22.15L115.545 21.4386C115.946 22.5415 117.097 23.2528 118.576 23.2528C119.879 23.2528 121.115 22.8006 121.115 21.5269C121.115 18.847 114.665 20.3799 114.665 16.4098C114.665 14.6839 116.234 13.3219 118.44 13.3219C119.235 13.2831 120.024 13.471 120.712 13.8626C121.399 14.2542 121.955 14.8327 122.312 15.5275L121.093 16.2223C120.86 15.7373 120.481 15.3331 120.007 15.0632C119.534 14.7934 118.987 14.6707 118.44 14.7114C117.312 14.7114 116.121 15.2629 116.121 16.4153C116.121 19.0841 122.577 17.5677 122.577 21.5269Z" fill="#333333"/>
<path d="M131.94 21.527C131.94 23.3632 130.309 24.6369 127.944 24.6369C125.732 24.6369 124.231 23.5341 123.678 22.1501L124.914 21.4387C125.314 22.5415 126.46 23.2529 127.944 23.2529C129.248 23.2529 130.484 22.8007 130.484 21.527C130.484 18.8471 124.033 20.38 124.033 16.4099C124.033 14.6839 125.602 13.322 127.809 13.322C128.603 13.2829 129.392 13.4707 130.078 13.8624C130.765 14.2541 131.32 14.8327 131.675 15.5276L130.462 16.2224C130.228 15.7374 129.85 15.3332 129.376 15.0633C128.902 14.7935 128.356 14.6708 127.809 14.7115C126.68 14.7115 125.489 15.2629 125.489 16.4154C125.489 19.0842 131.94 17.5678 131.94 21.527Z" fill="#333333"/>
<path d="M133.351 18.9794C133.347 17.8552 133.684 16.755 134.32 15.8181C134.956 14.8812 135.862 14.1498 136.924 13.7165C137.986 13.2833 139.155 13.1676 140.285 13.3843C141.414 13.6009 142.452 14.1401 143.267 14.9335C144.082 15.7269 144.638 16.7389 144.864 17.8412C145.09 18.9435 144.976 20.0866 144.537 21.1257C144.098 22.1648 143.353 23.0531 142.396 23.6782C141.44 24.3032 140.315 24.6369 139.164 24.6369C138.4 24.6457 137.642 24.5056 136.934 24.2247C136.226 23.9437 135.583 23.5277 135.042 23.0009C134.5 22.4741 134.072 21.8471 133.782 21.1565C133.492 20.466 133.345 19.7259 133.351 18.9794ZM143.51 18.9794C143.507 18.1382 143.248 17.3168 142.768 16.6189C142.287 15.9211 141.605 15.378 140.809 15.0584C140.012 14.7387 139.137 14.6568 138.293 14.8229C137.449 14.989 136.674 15.3957 136.066 15.9917C135.459 16.5877 135.045 17.3463 134.879 18.1716C134.712 18.9969 134.799 19.8519 135.129 20.6288C135.46 21.4057 136.018 22.0695 136.734 22.5366C137.45 23.0036 138.292 23.2529 139.153 23.2529C139.731 23.2633 140.306 23.16 140.842 22.9491C141.378 22.7382 141.866 22.4241 142.276 22.0254C142.685 21.6267 143.009 21.1516 143.227 20.6283C143.444 20.1051 143.552 19.5443 143.544 18.9794H143.51Z" fill="#333333"/>
</g>
<defs>
<linearGradient id="paint0_linear_2745_3848" x1="-0.451564" y1="17.0001" x2="41.5043" y2="17.0001" gradientUnits="userSpaceOnUse">
<stop stop-color="#ED2580"/>
<stop offset="1" stop-color="#D42128"/>
</linearGradient>
<clipPath id="clip0_2745_3848">
<rect width="145" height="34" fill="white"/>
</clipPath>
</defs>
</svg>
