<svg fill="none" height="24" viewBox="0 0 20 24" width="20" xmlns="http://www.w3.org/2000/svg" xmlns:xlink="http://www.w3.org/1999/xlink"><clipPath id="a"><rect height="20" rx="5" transform="matrix(0 1 -1 0 20 -20)" width="24" x="20"/></clipPath><g clip-path="url(#a)"><path d="m9.31122 23.3463c.38603.3664.99138.3662 1.37718-.0004l.7182-.6824 7.8646-7.4574c.402-.3811.4175-1.0165.0346-1.4168l-1.4309-1.4961c-.3806-.3979-1.0112-.4133-1.4107-.0344l-2.7301 2.5887c-.6372.6042-1.6881.1525-1.6881-.7256v-13.1219c0-.552285-.4477-1-1-1h-2.09203c-.55229 0-1 .447715-1 1v13.1233c0 .8782-1.05085 1.3299-1.68808.7256l-2.73007-2.5887c-.39954-.3788-1.03017-.3634-1.41074.0345l-1.430904 1.4961c-.382899.4003-.367382 1.0356.034599 1.4168l7.864575 7.4574z" fill="#f39"/></g></svg>