<svg width="61" height="56" viewBox="0 0 61 56" fill="none" xmlns="http://www.w3.org/2000/svg">
<path d="M59.8027 10.69C58.018 5.56857 53.7445 1.63738 48.6485 0.429509C40.2073 -1.56437 33.4044 3.92469 30.7878 6.48302C30.6856 6.58201 30.5891 6.67864 30.4996 6.7682C30.409 6.67628 30.3114 6.57848 30.2069 6.47713C27.5891 3.91408 20.7955 -1.57144 12.352 0.430687C7.25245 1.63974 2.97899 5.57211 1.19781 10.6911C-0.312655 15.0242 -0.832023 20.8573 2.28999 27.7051C2.37907 27.9007 2.47163 28.0971 2.56768 28.2943C4.72532 32.7652 8.44106 37.6556 14.4399 42.8359L29.7921 55.7419C29.9913 55.9085 30.2414 55.9997 30.4996 56C30.7602 55.9993 31.0124 55.9068 31.2131 55.7384C31.3571 55.6206 46.5582 42.8348 46.571 42.8253C52.564 37.6497 56.2775 32.7628 58.4339 28.2943C58.5292 28.0971 58.6214 27.9007 58.7105 27.7051C61.8325 20.8573 61.312 15.0242 59.8027 10.69Z" fill="#FF3399"/>
</svg>
