<svg width="20" height="18" viewBox="0 0 20 18" fill="none" xmlns="http://www.w3.org/2000/svg">
<path d="M5.32199 2.50024e-06C4.61616 -0.000691425 3.9176 0.143068 3.26894 0.422506C2.62028 0.701945 2.03512 1.1112 1.54919 1.62529C-0.51777 3.7971 -0.515024 7.27888 1.54919 9.4516L9.43898 17.7605C9.51083 17.8362 9.59722 17.8964 9.69293 17.9376C9.78863 17.9787 9.89166 17.9999 9.99577 17.9999C10.0999 17.9999 10.2029 17.9787 10.2986 17.9376C10.3943 17.8964 10.4807 17.8362 10.5526 17.7605L18.4501 9.45987C20.5171 7.28761 20.5171 3.80629 18.4501 1.63357C17.9645 1.11892 17.3795 0.709048 16.7308 0.428944C16.0822 0.148839 15.3836 0.00438072 14.6776 0.00438072C13.9715 0.00438072 13.2729 0.148839 12.6243 0.428944C11.9756 0.709048 11.3907 1.11892 10.905 1.63357L10.0001 2.57445L9.09525 1.62529C8.60926 1.11131 8.02408 0.702149 7.37543 0.422793C6.72677 0.143436 6.02824 -0.000264371 5.32245 0.000461889L5.32199 2.50024e-06ZM5.32199 1.51222C6.27812 1.51222 7.24066 1.90797 7.98899 2.69488L9.44676 4.23146C9.51861 4.30712 9.605 4.36735 9.70071 4.4085C9.79641 4.44965 9.89944 4.47087 10.0035 4.47087C10.1077 4.47087 10.2107 4.44965 10.3064 4.4085C10.4021 4.36735 10.4885 4.30712 10.5603 4.23146L12.0099 2.70315C13.5074 1.12934 15.8394 1.12934 17.3365 2.70315C18.8337 4.27696 18.8341 6.82429 17.3365 8.3981C14.8915 10.9681 12.446 13.5367 10.0001 16.104L2.66277 8.39029C1.16656 6.81418 1.16564 4.26869 2.66277 2.69534C3.41156 1.90843 4.36632 1.51268 5.32245 1.51268L5.32199 1.51222Z" fill="white"/>
</svg>
