<svg width="45" height="41" viewBox="0 0 45 41" fill="none" xmlns="http://www.w3.org/2000/svg">
<path d="M44.1167 7.82658C42.8001 4.07699 39.6476 1.1988 35.8882 0.314462C29.6611 -1.14534 24.6426 2.87343 22.7123 4.7465C22.6369 4.81897 22.5657 4.88972 22.4997 4.95529C22.4329 4.88799 22.3609 4.81638 22.2837 4.74219C20.3526 2.86567 15.3409 -1.15052 9.11213 0.315325C5.35016 1.20052 2.19762 4.07958 0.883629 7.82744C-0.230647 10.9998 -0.613787 15.2705 1.68934 20.2841C1.75505 20.4273 1.82334 20.5711 1.89419 20.7155C3.48589 23.9888 6.22701 27.5693 10.6524 31.362L21.9777 40.8111C22.1247 40.933 22.3092 40.9998 22.4997 41C22.6919 40.9995 22.878 40.9318 23.026 40.8085C23.1323 40.7222 34.3462 31.3612 34.3556 31.3543C38.7768 27.565 41.5162 23.9871 43.107 20.7155C43.1773 20.5711 43.2453 20.4273 43.311 20.2841C45.6141 15.2705 45.2301 10.9998 44.1167 7.82658Z" fill="url(#paint0_linear_3025_4374)"/>
<defs>
<linearGradient id="paint0_linear_3025_4374" x1="0" y1="0" x2="45" y2="46" gradientUnits="userSpaceOnUse">
<stop stop-color="#D42128"/>
<stop offset="1" stop-color="#FF3399"/>
</linearGradient>
</defs>
</svg>
