<svg width="30" height="27" viewBox="0 0 30 27" fill="none" xmlns="http://www.w3.org/2000/svg">
<path d="M29.4111 5.15409C28.5334 2.68485 26.4317 0.789453 23.9255 0.207085C19.7741 -0.754249 16.4284 1.89226 15.1415 3.12574C15.0913 3.17347 15.0438 3.22006 14.9998 3.26324C14.9553 3.21892 14.9073 3.17177 14.8558 3.1229C13.5684 1.88715 10.2273 -0.757658 6.07476 0.207653C3.56678 0.790589 1.46508 2.68655 0.589086 5.15466C-0.153765 7.2438 -0.409191 10.0562 1.12622 13.3578C1.17003 13.4521 1.21556 13.5468 1.2628 13.6419C2.32393 15.7975 4.15134 18.1554 7.10161 20.653L14.6518 26.8756C14.7498 26.9559 14.8728 26.9999 14.9998 27C15.1279 26.9997 15.252 26.9551 15.3507 26.8739C15.4215 26.8171 22.8975 20.6525 22.9038 20.6479C25.8512 18.1525 27.6774 15.7964 28.738 13.6419C28.7849 13.5468 28.8302 13.4521 28.874 13.3578C30.4094 10.0562 30.1534 7.2438 29.4111 5.15409Z" fill="#D42128"/>
<path d="M29.4111 5.15409C28.5334 2.68485 26.4317 0.789453 23.9255 0.207085C19.7741 -0.754249 16.4284 1.89226 15.1415 3.12574C15.0913 3.17347 15.0438 3.22006 14.9998 3.26324C14.9553 3.21892 14.9073 3.17177 14.8558 3.1229C13.5684 1.88715 10.2273 -0.757658 6.07476 0.207653C3.56678 0.790589 1.46508 2.68655 0.589086 5.15466C-0.153765 7.2438 -0.409191 10.0562 1.12622 13.3578C1.17003 13.4521 1.21556 13.5468 1.2628 13.6419C2.32393 15.7975 4.15134 18.1554 7.10161 20.653L14.6518 26.8756C14.7498 26.9559 14.8728 26.9999 14.9998 27C15.1279 26.9997 15.252 26.9551 15.3507 26.8739C15.4215 26.8171 22.8975 20.6525 22.9038 20.6479C25.8512 18.1525 27.6774 15.7964 28.738 13.6419C28.7849 13.5468 28.8302 13.4521 28.874 13.3578C30.4094 10.0562 30.1534 7.2438 29.4111 5.15409Z" fill="#D42128"/>
<path d="M29.4111 5.15409C28.5334 2.68485 26.4317 0.789453 23.9255 0.207085C19.7741 -0.754249 16.4284 1.89226 15.1415 3.12574C15.0913 3.17347 15.0438 3.22006 14.9998 3.26324C14.9553 3.21892 14.9073 3.17177 14.8558 3.1229C13.5684 1.88715 10.2273 -0.757658 6.07476 0.207653C3.56678 0.790589 1.46508 2.68655 0.589086 5.15466C-0.153765 7.2438 -0.409191 10.0562 1.12622 13.3578C1.17003 13.4521 1.21556 13.5468 1.2628 13.6419C2.32393 15.7975 4.15134 18.1554 7.10161 20.653L14.6518 26.8756C14.7498 26.9559 14.8728 26.9999 14.9998 27C15.1279 26.9997 15.252 26.9551 15.3507 26.8739C15.4215 26.8171 22.8975 20.6525 22.9038 20.6479C25.8512 18.1525 27.6774 15.7964 28.738 13.6419C28.7849 13.5468 28.8302 13.4521 28.874 13.3578C30.4094 10.0562 30.1534 7.2438 29.4111 5.15409Z" fill="#D42128"/>
</svg>
