<svg width="21" height="21" viewBox="0 0 21 21" fill="none" xmlns="http://www.w3.org/2000/svg">
<g clip-path="url(#clip0_4819_5072)">
<path d="M20.5001 9.34475H18.3122C18.1842 9.34684 18.062 9.40072 17.9714 9.49497C17.8809 9.58922 17.8291 9.71645 17.8271 9.84973V20.4904C17.9869 20.3236 18.152 20.1518 18.3122 19.9854H2.67172L3.15642 20.4904V9.84973C3.15441 9.71653 3.10272 9.58937 3.01226 9.49513C2.9218 9.40088 2.79968 9.34696 2.67172 9.34475H0.483395C0.599915 9.63241 0.71167 9.92052 0.829922 10.2082C1.96047 9.15313 3.08914 8.09778 4.21593 7.04213C6.0147 5.36036 7.81231 3.6804 9.60876 2.00223C10.0155 1.61854 10.4287 1.2398 10.8385 0.855657H10.1524C11.2823 1.91101 12.411 2.96651 13.5384 4.02216L18.933 9.06205C19.3406 9.44575 19.7529 9.82448 20.1605 10.2082C20.6262 10.6424 21.3101 9.93044 20.8445 9.49625C19.7139 8.44059 18.5853 7.38524 17.4585 6.33019C15.6583 4.64843 13.8601 2.96846 12.0639 1.2903C11.6563 0.906155 11.2439 0.52787 10.8385 0.143723C10.7468 0.0513058 10.6242 -0.000366211 10.4965 -0.000366211C10.3689 -0.000366211 10.2462 0.0513058 10.1545 0.143723C9.02226 1.19937 7.89302 2.25473 6.7668 3.30977L1.37137 8.34967C0.963768 8.73336 0.551401 9.1121 0.143798 9.49625C-0.176307 9.79427 0.0809895 10.3597 0.490325 10.3597H2.67821L2.19307 9.85469V20.4954C2.19508 20.6286 2.24684 20.7559 2.33739 20.8501C2.42794 20.9444 2.55017 20.9983 2.67821 21.0003H18.317C18.445 20.9983 18.5673 20.9444 18.6578 20.8501C18.7484 20.7559 18.8001 20.6286 18.8021 20.4954V9.85469L18.317 10.361H20.5049C21.1213 10.3561 21.126 9.3461 20.5001 9.3461V9.34475Z" fill="white"/>
<path d="M12.8254 19.985H8.1243L8.60944 20.49V12.5095L8.1243 13.0145H12.8254L12.3402 12.5095V20.49C12.3402 21.1415 13.3105 21.1415 13.3105 20.49V12.5095C13.3084 12.3763 13.2566 12.2491 13.1661 12.1549C13.0756 12.0606 12.9534 12.0067 12.8254 12.0045H8.1243C7.99629 12.0067 7.87412 12.0606 7.7836 12.1549C7.69307 12.2491 7.64128 12.3763 7.63916 12.5095V20.49C7.64117 20.6233 7.69293 20.7505 7.78348 20.8448C7.87402 20.939 7.99626 20.9929 8.1243 20.995H12.8254C13.4465 20.995 13.4465 19.985 12.8254 19.985Z" fill="white"/>
</g>
<defs>
<clipPath id="clip0_4819_5072">
<rect width="21" height="21" fill="white"/>
</clipPath>
</defs>
</svg>
