<svg width="21" height="23" viewBox="0 0 21 23" fill="none" xmlns="http://www.w3.org/2000/svg">
<path d="M15.8247 4.04763C15.7733 3.90772 12.5087 0.209293 12.4621 0.162601C12.2522 -0.0660143 12.9797 0.0133142 0.46644 0.0133142C0.208939 0.0133142 0 0.222097 0 0.479755V21.9333C0 22.057 0.0491905 22.1756 0.136638 22.2631C0.224086 22.3505 0.342763 22.3997 0.46644 22.3997H15.3907C15.5144 22.3997 15.6331 22.3505 15.7205 22.2631C15.8079 22.1756 15.8571 22.057 15.8571 21.9333C15.8571 3.06341 15.8571 4.21072 15.8245 4.04762L15.8247 4.04763ZM12.5926 1.72027L14.365 3.74437H12.5926V1.72027ZM14.9246 21.4672H0.933001V0.945931H11.6598V4.21069C11.6598 4.33437 11.709 4.45305 11.7964 4.5405C11.8839 4.62794 12.0025 4.67713 12.1262 4.67713H14.9245L14.9246 21.4672Z" fill="white"/>
<path d="M7.59747 12.8157C7.68508 12.9039 7.80422 12.9536 7.92868 12.9536C8.05298 12.9536 8.17213 12.9039 8.25973 12.8157L11.4592 9.61621C12.0348 9.04139 12.2601 8.20314 12.0501 7.41705C11.8401 6.63112 11.2268 6.01697 10.4411 5.80581C9.65545 5.59453 8.81672 5.81862 8.24114 6.39358L7.92867 6.70605L7.61621 6.39358C7.04047 5.81861 6.20189 5.59454 5.41612 5.80581C4.63051 6.01693 4.01712 6.63112 3.80709 7.41705C3.59706 8.20314 3.82239 9.04139 4.39813 9.61621L7.59747 12.8157ZM6.3896 6.71095C6.78608 6.83229 6.89337 6.99078 7.59747 7.69504V7.69488C7.68508 7.78327 7.80422 7.83293 7.92868 7.83293C8.05298 7.83293 8.17213 7.78327 8.25973 7.69488L8.89871 7.05591V7.05606C9.23772 6.71611 9.73241 6.58291 10.1964 6.70659C10.6603 6.83026 11.0229 7.19209 11.1478 7.6557C11.2726 8.11934 11.1407 8.61432 10.8016 8.95412L7.92868 11.8271C4.91581 8.8142 4.66392 8.74892 4.66392 8.00265V8.00281C4.66642 7.57946 4.86708 7.1819 5.20579 6.92813C5.54465 6.67453 5.98269 6.59411 6.3896 6.71092L6.3896 6.71095Z" fill="white"/>
<path d="M3.26515 15.8704H12.5928C12.8504 15.8704 13.0592 15.6614 13.0592 15.4039C13.0592 15.1464 12.8504 14.9375 12.5928 14.9375H3.26515C3.00764 14.9375 2.79871 15.1464 2.79871 15.4039C2.79871 15.6614 3.00764 15.8704 3.26515 15.8704V15.8704Z" fill="white"/>
<path d="M12.5928 17.27H3.26515C3.00764 17.27 2.79871 17.4788 2.79871 17.7363C2.79871 17.994 3.00764 18.2027 3.26515 18.2027H12.5928C12.8504 18.2027 13.0592 17.994 13.0592 17.7363C13.0592 17.4788 12.8504 17.27 12.5928 17.27Z" fill="white"/>
<path d="M18.889 4.6772C18.4562 4.6772 18.0409 4.84913 17.7349 5.1552C17.4286 5.46142 17.2567 5.87665 17.2567 6.30951C17.2567 20.469 17.2567 19.6623 17.3081 19.8346C18.5533 22.3019 18.5019 22.3998 18.889 22.3998C19.2761 22.3998 19.2248 22.3019 20.4701 19.8113C20.5494 19.6574 20.5215 20.4736 20.5215 6.30943C20.5215 5.87657 20.3494 5.46133 20.0433 5.15512C19.7373 4.84905 19.3221 4.67712 18.889 4.67712L18.889 4.6772ZM18.889 20.8891L18.3014 19.7184C18.6798 19.5738 19.0983 19.5738 19.4768 19.7184L18.889 20.8891ZM19.5886 18.7763C19.1308 18.6504 18.6474 18.6504 18.1894 18.7763V8.40849H19.5886V18.7763ZM19.5886 7.47585H18.1894V6.30983C18.1894 6.05982 18.3228 5.82887 18.5392 5.70395C18.7557 5.57902 19.0224 5.57902 19.2388 5.70395C19.4552 5.82887 19.5886 6.05983 19.5886 6.30983V7.47585Z" fill="white"/>
</svg>
