<svg width="24" height="18" viewBox="0 0 24 18" fill="none" xmlns="http://www.w3.org/2000/svg">
<path d="M8.81224 1.28536e-05C7.29082 1.28536e-05 6.30612 0.489932 5.4551 0.925416C4.60408 1.3609 3.88775 1.74195 2.57143 1.74195H2V3.48388H0V18H24V3.48388H22V1.74195H21.4286C20.1143 1.74195 19.3954 1.3609 18.5444 0.925416C17.6934 0.489932 16.7077 -0.00102401 15.1878 1.28536e-05C14.0255 -0.00257931 13.0857 0.386764 12 1.28832C10.9143 0.386764 9.97449 -0.00206088 8.81224 1.28536e-05V1.28536e-05ZM8.81224 1.1613C9.83265 1.1613 10.3939 1.37956 11.4286 2.29563V13.9251C10.5704 13.332 9.76633 13.0609 8.81224 13.063C7.29082 13.063 6.30612 13.5534 5.4551 13.9884C4.74082 14.3513 4.09847 14.6649 3.14235 14.7598V2.85813C4.35816 2.75134 5.22602 2.34696 5.96429 1.96902C6.81684 1.53302 7.52347 1.16027 8.81224 1.16182V1.1613ZM15.1898 1.1613C16.4786 1.1613 17.1852 1.5325 18.0378 1.96902C18.776 2.34644 19.6439 2.75082 20.8592 2.85762V14.7608C19.9036 14.6665 19.2602 14.3549 18.5469 13.9899C17.6959 13.5544 16.7102 13.063 15.1898 13.0645C14.2357 13.0645 13.4316 13.3336 12.5735 13.9262V2.29512C13.6092 1.37904 14.1719 1.15871 15.1898 1.1613V1.1613ZM1.14235 4.64517H2V15.9678H2.57143C4.11429 15.9678 5.11173 15.4695 5.96429 15.0346C6.81684 14.5996 7.52347 14.2258 8.81224 14.2269C9.89235 14.2243 10.4515 14.4591 11.6184 15.5229L12.002 15.8765L12.3857 15.5229C13.5505 14.4576 14.1097 14.2227 15.1918 14.2269C16.4806 14.2269 17.1872 14.5981 18.0398 15.0346C18.8923 15.4711 19.8893 15.9678 21.4327 15.9678H22V4.64517H22.8571V16.8387H1.14235V4.64517Z" fill="white"/>
</svg>
