<svg width="20" height="20" viewBox="0 0 20 20" fill="none" xmlns="http://www.w3.org/2000/svg">
<path d="M10.6503 19.9968H9.35367C9.15361 19.9969 8.9568 19.9461 8.78179 19.8492C8.60678 19.7522 8.45932 19.6124 8.35328 19.4427C8.25932 19.2945 7.68516 18.3325 7.3929 17.7638L6.35678 17.3377C5.72475 17.5377 4.58644 17.8217 4.48819 17.8456C4.29267 17.8906 4.08893 17.8852 3.89607 17.8299C3.70322 17.7746 3.52757 17.6713 3.38562 17.5295L2.4674 16.6115C2.32554 16.4697 2.22209 16.2941 2.16677 16.1014C2.11146 15.9086 2.1061 15.7049 2.1512 15.5095C2.19122 15.3373 2.46347 14.251 2.65962 13.6409L2.23338 12.6089C1.63314 12.3046 0.632748 11.6987 0.554146 11.6487C0.384489 11.5427 0.244605 11.3953 0.147661 11.2203C0.0507175 11.0453 -9.73197e-05 10.8485 1.39927e-07 10.6485V9.34826C-9.73197e-05 9.14824 0.0507175 8.95147 0.147661 8.7765C0.244605 8.60152 0.384489 8.45408 0.554146 8.34807C0.702061 8.25376 1.66458 7.67972 2.23338 7.38788L2.65962 6.35553C2.45918 5.72362 2.1755 4.58519 2.1512 4.48731C2.10617 4.29183 2.11157 4.08812 2.16688 3.89529C2.22218 3.70247 2.32559 3.52686 2.4674 3.38495L3.38562 2.46691C3.52753 2.32512 3.70319 2.22174 3.89607 2.1665C4.08895 2.11126 4.29271 2.10597 4.48819 2.15114C4.6604 2.19114 5.74654 2.46298 6.35678 2.65909L7.38933 2.23294C7.69338 1.63282 8.29969 0.632624 8.34971 0.554037C8.45589 0.384553 8.60339 0.244807 8.77837 0.147901C8.95335 0.0509946 9.15007 0.000103806 9.3501 0H10.6453C10.8453 0.000103806 11.042 0.0509946 11.217 0.147901C11.392 0.244807 11.5395 0.384553 11.6456 0.554037C11.7396 0.702281 12.3138 1.66426 12.606 2.23294L13.6382 2.65909C14.2717 2.45763 15.41 2.17186 15.5082 2.14935C15.7039 2.10409 15.9078 2.10933 16.1009 2.16457C16.294 2.21981 16.4698 2.32324 16.6119 2.46513L17.5305 3.38352C17.6723 3.52537 17.7758 3.70098 17.8311 3.89382C17.8864 4.08667 17.8918 4.29041 17.8467 4.48588C17.8063 4.6577 17.5344 5.74399 17.3382 6.35411L17.763 7.38717C18.3633 7.69115 19.3637 8.29735 19.4423 8.34735C19.6119 8.45337 19.7518 8.6008 19.8488 8.77578C19.9457 8.95076 19.9965 9.14752 19.9964 9.34755V10.6435C19.9965 10.8435 19.9457 11.0403 19.8488 11.2153C19.7518 11.3903 19.6119 11.5377 19.4423 11.6437C19.2944 11.738 18.3318 12.3121 17.763 12.6039L17.345 13.6398C17.5451 14.2721 17.8291 15.4102 17.8531 15.5084C17.8981 15.7038 17.8927 15.9075 17.8374 16.1003C17.7821 16.293 17.6787 16.4686 17.5369 16.6104L16.6187 17.5284C16.4767 17.6702 16.3011 17.7736 16.1082 17.8289C15.9154 17.8842 15.7116 17.8896 15.5161 17.8446C15.3442 17.8046 14.2577 17.5327 13.6475 17.3366L12.615 17.7628C12.3109 18.3629 11.7046 19.3631 11.6546 19.4417C11.5482 19.6119 11.4001 19.7522 11.2244 19.8494C11.0486 19.9465 10.8511 19.9972 10.6503 19.9968ZM6.38644 16.1482L8.20108 16.9023L8.29111 17.1023C8.47511 17.5024 9.1393 18.6265 9.29151 18.8566C9.29852 18.8677 9.30828 18.8768 9.31986 18.8831C9.33144 18.8894 9.34444 18.8925 9.3576 18.8923H10.6542C10.6673 18.8925 10.6803 18.8894 10.6919 18.8831C10.7035 18.8768 10.7133 18.8677 10.7203 18.8566C10.8382 18.6683 11.5202 17.5284 11.7207 17.1023L11.8107 16.9023L13.6329 16.1478L13.8329 16.2218C14.247 16.3739 15.5097 16.6979 15.7755 16.7619C15.7881 16.7658 15.8015 16.766 15.8142 16.7625C15.8269 16.7589 15.8383 16.7518 15.8469 16.7419L16.7652 15.8238C16.7748 15.8149 16.7818 15.8036 16.7854 15.791C16.789 15.7784 16.789 15.765 16.7855 15.7524C16.7355 15.5381 16.4111 14.2482 16.2453 13.8102L16.1714 13.6102L16.9216 11.7937L17.1217 11.7037C17.5219 11.5198 18.6463 10.8557 18.8763 10.7035C18.8875 10.6966 18.8967 10.6868 18.903 10.6752C18.9092 10.6636 18.9124 10.6506 18.9121 10.6374V9.34255C18.9124 9.32943 18.9092 9.31647 18.9029 9.30494C18.8967 9.29341 18.8875 9.28372 18.8763 9.27682C18.6881 9.15858 17.5476 8.47667 17.1214 8.27663L16.9213 8.18661L16.1671 6.36482L16.241 6.16443C16.3932 5.75042 16.7173 4.48802 16.7812 4.22226C16.7843 4.20963 16.784 4.19644 16.7805 4.18393C16.777 4.17143 16.7704 4.16003 16.7612 4.15082L15.843 3.23278C15.8341 3.22322 15.8227 3.2163 15.8101 3.21278C15.7975 3.20925 15.7842 3.20925 15.7716 3.21277C15.5572 3.26278 14.271 3.58678 13.829 3.75288L13.6286 3.82682L11.8039 3.07668L11.7139 2.87664C11.5299 2.47656 10.8657 1.35205 10.7135 1.12201C10.7065 1.11084 10.6967 1.10168 10.6852 1.09542C10.6736 1.08916 10.6606 1.08601 10.6474 1.08628H9.35903C9.34587 1.08605 9.33287 1.08921 9.32129 1.09547C9.30971 1.10173 9.29995 1.11087 9.29294 1.12201C9.17503 1.3099 8.49298 2.45012 8.29254 2.87628L8.20251 3.07632L6.38036 3.8304L6.18028 3.75645C5.76619 3.60464 4.50355 3.28064 4.23774 3.21635C4.22517 3.21239 4.21172 3.21217 4.19903 3.21572C4.18634 3.21927 4.17496 3.22644 4.16628 3.23635L3.24949 4.1576C3.23993 4.16654 3.23301 4.17793 3.22948 4.19052C3.22596 4.20312 3.22596 4.21645 3.22948 4.22905C3.2795 4.44337 3.60392 5.73363 3.7697 6.17157L3.84401 6.37161L3.09372 8.1959L2.89221 8.28448C2.49205 8.46845 1.36768 9.13251 1.13759 9.28468C1.12645 9.29169 1.11731 9.30146 1.11105 9.31303C1.10479 9.32461 1.10162 9.33761 1.10186 9.35077V10.6471C1.10162 10.6603 1.10479 10.6732 1.11105 10.6848C1.11731 10.6964 1.12645 10.7062 1.13759 10.7132C1.32588 10.8311 2.46633 11.513 2.89256 11.7134L3.09264 11.8034L3.84687 13.6252L3.77291 13.8252C3.62071 14.2392 3.29665 15.5016 3.2327 15.7674C3.22974 15.78 3.23005 15.7932 3.23362 15.8057C3.23718 15.8182 3.24387 15.8296 3.25306 15.8388L4.17128 16.7569C4.18018 16.7665 4.19155 16.7735 4.20415 16.7771C4.21676 16.7807 4.23011 16.7807 4.24274 16.7772C4.45711 16.7272 5.74333 16.4029 6.18529 16.2371L6.38644 16.1482ZM10.0021 14.6679C8.91843 14.6698 7.8676 14.2959 7.02879 13.6099C6.18999 12.9238 5.61517 11.9681 5.40232 10.9057C5.18948 9.84335 5.35179 8.74003 5.86159 7.78391C6.3714 6.82779 7.19712 6.07806 8.19798 5.66255C9.19883 5.24704 10.3129 5.19149 11.3501 5.50535C12.3873 5.81921 13.2836 6.48307 13.886 7.38372C14.4885 8.28437 14.7598 9.36606 14.6538 10.4444C14.5477 11.5227 14.0709 12.5308 13.3045 13.2969C12.4291 14.1736 11.2412 14.6667 10.0021 14.6679ZM10.0021 6.42841C9.17533 6.42732 8.37373 6.71297 7.734 7.23667C7.09427 7.76037 6.65601 8.48969 6.49393 9.30031C6.33186 10.1109 6.456 10.9526 6.84519 11.682C7.23439 12.4113 7.86454 12.9831 8.62823 13.2999C9.39192 13.6167 10.2419 13.6589 11.0332 13.4193C11.8245 13.1796 12.5082 12.673 12.9677 11.9858C13.4272 11.2986 13.6341 10.4733 13.5531 9.65058C13.4721 8.8279 13.1082 8.05878 12.5235 7.47433C11.855 6.80528 10.948 6.42906 10.0021 6.42841Z" fill="white"/>
</svg>
